<svg width="99" height="41" viewBox="0 0 99 41" fill="none" xmlns="http://www.w3.org/2000/svg">
<g clip-path="url(#clip0_10_688)">
<g clip-path="url(#clip1_10_688)">
<path d="M31.7483 32.1498V9.41674H35.1583V29.0407H45.8228V32.1498H31.7483ZM47.4608 32.1498V15.4343H50.8707V32.1498H47.4608ZM47.327 12.4924H50.971V8.88184H47.327V12.4924ZM53.5772 32.1498V15.4343H56.9203V18.4431C58.0235 16.5376 59.6617 15.1001 62.2693 15.1001C64.7432 15.1001 66.6822 16.4038 67.451 18.8443C68.5208 16.7716 70.3595 15.1001 73.1343 15.1001C76.3772 15.1001 78.7173 17.3733 78.7173 21.5188V32.1498H75.3073V21.7862C75.3073 19.3123 74.0704 18.0086 71.8639 18.0086C69.5572 18.0086 67.8522 19.3792 67.8522 22.6219V32.1498H64.4423V21.7862C64.4423 19.3123 63.2053 18.0086 60.9989 18.0086C58.6922 18.0086 56.9872 19.3792 56.9872 22.6219V32.1498H53.5772ZM88.9945 32.4841C84.0468 32.4841 80.6703 29.0742 80.6703 23.7921C80.6703 18.5099 84.0468 15.1001 88.8608 15.1001C93.4743 15.1001 96.6168 18.2091 96.6168 23.7921V24.7616H84.1805C84.2139 27.8707 86.1529 29.7093 88.9945 29.7093C91.2679 29.7093 92.5717 28.5058 92.9729 27.0683H96.3494C95.6808 30.2442 93.0063 32.4841 88.9945 32.4841ZM84.1805 22.2542H93.14C93.14 19.5463 91.3682 17.8748 88.794 17.8748C86.2532 17.8748 84.381 19.4794 84.1805 22.2542Z" fill="url(#paint0_linear_10_688)"/>
<path d="M12.8646 32.1586C11.6747 32.1615 10.4929 31.9621 9.36972 31.569C9.06749 31.4813 8.75092 31.4542 8.43818 31.4892C8.12543 31.5241 7.82267 31.6205 7.54724 31.7727C6.72564 32.179 5.78373 32.2706 4.89928 32.03C4.27357 31.8531 3.70363 31.5187 3.24383 31.059C2.78403 30.5991 2.44971 30.0292 2.27276 29.4035C2.04301 28.5323 2.13433 27.6077 2.53006 26.7985C2.68228 26.523 2.77864 26.2202 2.81359 25.9075C2.84854 25.5947 2.82141 25.2782 2.73374 24.976C1.95614 22.7072 1.95614 20.2442 2.73374 17.9755C3.24821 16.4267 4.11396 15.0178 5.26329 13.8592C6.41264 12.7006 7.81441 11.8235 9.35901 11.2966C11.6277 10.519 14.0908 10.519 16.3595 11.2966C16.6674 11.3918 16.9913 11.4238 17.3119 11.3906C17.6324 11.3575 17.943 11.2598 18.2249 11.1036C19.0464 10.6973 19.9884 10.6058 20.8728 10.8463C21.4985 11.0233 22.0685 11.3576 22.5283 11.8174C22.988 12.2772 23.3224 12.8471 23.4993 13.4728C23.7159 14.3491 23.6093 15.274 23.1991 16.078C23.0469 16.3533 22.9505 16.6561 22.9156 16.9688C22.8806 17.2816 22.9078 17.5982 22.9955 17.9003C23.773 20.1691 23.773 22.6322 22.9955 24.9008C22.4743 26.4428 21.6044 27.8438 20.4534 28.9948C19.3025 30.1457 17.9015 31.0157 16.3595 31.5368C15.2356 31.9312 14.0555 32.1412 12.8646 32.1586Z" fill="#32CD32"/>
<path d="M8.57647 21.4382H6.43237C6.43237 19.7322 7.11006 18.0961 8.31635 16.8899C9.52264 15.6836 11.1587 15.0059 12.8646 15.0059V17.15C11.7274 17.15 10.6366 17.6017 9.83246 18.406C9.02826 19.2101 8.57647 20.3009 8.57647 21.4382Z" fill="white"/>
</g>
</g>
<defs>
<linearGradient id="paint0_linear_10_688" x1="63.7152" y1="0.89981" x2="63.7152" y2="34.9228" gradientUnits="userSpaceOnUse">
<stop stop-opacity="0.95"/>
<stop offset="1" stop-color="#3E3E3E"/>
</linearGradient>
<clipPath id="clip0_10_688">
<rect width="98.75" height="40" fill="white" transform="translate(0 0.899902)"/>
</clipPath>
<clipPath id="clip1_10_688">
<rect width="98.75" height="40" fill="white" transform="translate(0 0.899902)"/>
</clipPath>
</defs>
</svg>
